<mxfile host="app.diagrams.net" modified="2023-09-02T07:29:02.750Z" agent="Mozilla/5.0 (Macintosh; Intel Mac OS X 10_15_7) AppleWebKit/537.36 (KHTML, like Gecko) Chrome/116.0.0.0 Safari/537.36 Edg/116.0.1938.62" etag="GiSKpHAMevBqNoLkPSpE" version="21.7.2" type="device">
  <diagram name="第 1 页" id="uZT00gwrbeuZWCTQEuGv">
    <mxGraphModel dx="954" dy="648" grid="1" gridSize="10" guides="1" tooltips="1" connect="1" arrows="1" fold="1" page="1" pageScale="1" pageWidth="827" pageHeight="1169" math="0" shadow="0">
      <root>
        <mxCell id="0" />
        <mxCell id="1" parent="0" />
        <mxCell id="Am0s-1DFOQySLjD4_sWS-1" value="RegionMeta" style="swimlane;fontStyle=1;align=center;verticalAlign=top;childLayout=stackLayout;horizontal=1;startSize=26;horizontalStack=0;resizeParent=1;resizeParentMax=0;resizeLast=0;collapsible=1;marginBottom=0;" diagramCategory="uml" diagramName="Class" vertex="1" parent="1">
          <mxGeometry x="110" y="400" width="260" height="130" as="geometry" />
        </mxCell>
        <mxCell id="Am0s-1DFOQySLjD4_sWS-2" value="+ region_id:  RegionID" style="text;strokeColor=none;fillColor=none;align=left;verticalAlign=top;spacingLeft=4;spacingRight=4;overflow=hidden;rotatable=0;points=[[0,0.5],[1,0.5]];portConstraint=eastwest;" vertex="1" parent="Am0s-1DFOQySLjD4_sWS-1">
          <mxGeometry y="26" width="260" height="26" as="geometry" />
        </mxCell>
        <mxCell id="Am0s-1DFOQySLjD4_sWS-3" value="+ region_state:  RegionState" style="text;strokeColor=none;fillColor=none;align=left;verticalAlign=top;spacingLeft=4;spacingRight=4;overflow=hidden;rotatable=0;points=[[0,0.5],[1,0.5]];portConstraint=eastwest;" vertex="1" parent="Am0s-1DFOQySLjD4_sWS-1">
          <mxGeometry y="52" width="260" height="26" as="geometry" />
        </mxCell>
        <mxCell id="Am0s-1DFOQySLjD4_sWS-4" value="+ applied_term:  UInt64" style="text;strokeColor=none;fillColor=none;align=left;verticalAlign=top;spacingLeft=4;spacingRight=4;overflow=hidden;rotatable=0;points=[[0,0.5],[1,0.5]];portConstraint=eastwest;" vertex="1" parent="Am0s-1DFOQySLjD4_sWS-1">
          <mxGeometry y="78" width="260" height="26" as="geometry" />
        </mxCell>
        <mxCell id="Am0s-1DFOQySLjD4_sWS-5" value="+ apply_state:  raft_serverpb::RaftApplyState" style="text;strokeColor=none;fillColor=none;align=left;verticalAlign=top;spacingLeft=4;spacingRight=4;overflow=hidden;rotatable=0;points=[[0,0.5],[1,0.5]];portConstraint=eastwest;" vertex="1" parent="Am0s-1DFOQySLjD4_sWS-1">
          <mxGeometry y="104" width="260" height="26" as="geometry" />
        </mxCell>
        <mxCell id="Am0s-1DFOQySLjD4_sWS-6" value="Region" style="swimlane;fontStyle=1;align=center;verticalAlign=top;childLayout=stackLayout;horizontal=1;startSize=26;horizontalStack=0;resizeParent=1;resizeParentMax=0;resizeLast=0;collapsible=1;marginBottom=0;" diagramCategory="uml" diagramName="Class" vertex="1" parent="1">
          <mxGeometry x="410" y="210" width="250" height="130" as="geometry" />
        </mxCell>
        <mxCell id="Am0s-1DFOQySLjD4_sWS-7" value="+ data:  RegionData" style="text;strokeColor=none;fillColor=none;align=left;verticalAlign=top;spacingLeft=4;spacingRight=4;overflow=hidden;rotatable=0;points=[[0,0.5],[1,0.5]];portConstraint=eastwest;" vertex="1" parent="Am0s-1DFOQySLjD4_sWS-6">
          <mxGeometry y="26" width="250" height="26" as="geometry" />
        </mxCell>
        <mxCell id="Am0s-1DFOQySLjD4_sWS-8" value="+ meta: RegionMeta" style="text;strokeColor=none;fillColor=#ffffff;align=left;verticalAlign=top;spacingLeft=4;spacingRight=4;overflow=hidden;rotatable=0;points=[[0,0.5],[1,0.5]];portConstraint=eastwest;labelBackgroundColor=#ffffff;" vertex="1" parent="Am0s-1DFOQySLjD4_sWS-6">
          <mxGeometry y="52" width="250" height="26" as="geometry" />
        </mxCell>
        <mxCell id="Am0s-1DFOQySLjD4_sWS-9" value="+ mapped_table_id: TableID " style="text;strokeColor=none;fillColor=none;align=left;verticalAlign=top;spacingLeft=4;spacingRight=4;overflow=hidden;rotatable=0;points=[[0,0.5],[1,0.5]];portConstraint=eastwest;" vertex="1" parent="Am0s-1DFOQySLjD4_sWS-6">
          <mxGeometry y="78" width="250" height="26" as="geometry" />
        </mxCell>
        <mxCell id="Am0s-1DFOQySLjD4_sWS-10" value="+ proxy_helper: TiFlashRaftProxyHelper * " style="text;strokeColor=none;fillColor=none;align=left;verticalAlign=top;spacingLeft=4;spacingRight=4;overflow=hidden;rotatable=0;points=[[0,0.5],[1,0.5]];portConstraint=eastwest;" vertex="1" parent="Am0s-1DFOQySLjD4_sWS-6">
          <mxGeometry y="104" width="250" height="26" as="geometry" />
        </mxCell>
        <mxCell id="Am0s-1DFOQySLjD4_sWS-11" value="" style="endArrow=open;html=1;endSize=12;startArrow=diamondThin;startSize=14;startFill=0;edgeStyle=orthogonalEdgeStyle;align=left;verticalAlign=bottom;fontColor=#FFCC99;exitX=0;exitY=0.5;exitDx=0;exitDy=0;entryX=0.5;entryY=0;entryDx=0;entryDy=0;rounded=1;" diagramCategory="uml" diagramName="Aggregation1" edge="1" parent="1" source="Am0s-1DFOQySLjD4_sWS-8" target="Am0s-1DFOQySLjD4_sWS-1">
          <mxGeometry x="-1" y="3" relative="1" as="geometry">
            <mxPoint x="220" y="350" as="sourcePoint" />
            <mxPoint x="380" y="350" as="targetPoint" />
          </mxGeometry>
        </mxCell>
        <mxCell id="Am0s-1DFOQySLjD4_sWS-12" value="" style="rounded=1;whiteSpace=wrap;html=1;fillColor=none;dashed=1;" vertex="1" parent="1">
          <mxGeometry x="50" y="135" width="660" height="450" as="geometry" />
        </mxCell>
      </root>
    </mxGraphModel>
  </diagram>
</mxfile>
